<svg xmlns="http://www.w3.org/2000/svg" xmlns:xlink="http://www.w3.org/1999/xlink" viewBox="0 0 64 60">
  <defs>
    <style>
      .cls-1 {
        clip-path: url(#clip-logo);
      }

      .cls-2 {
        stroke: rgba(0,0,0,0);
        stroke-miterlimit: 10;
        fill: url(#linear-gradient);
      }
    </style>
    <linearGradient id="linear-gradient" x1="0.918" y1="0.053" x2="0.072" y2="0.954" gradientUnits="objectBoundingBox">
      <stop offset="0" stop-color="#34d399"/>
      <stop offset="1" stop-color="#3b82f6"/>
    </linearGradient>
    <clipPath id="clip-logo">
      <rect width="64" height="60"/>
    </clipPath>
  </defs>
  <g id="logo" class="cls-1">
    <g id="Group_1" transform="translate(-31.26 -43.72)">
      <path id="Union_1" class="cls-2" d="M58.744,59.406a2.98,2.98,0,0,1-1.213-2.079,8.058,8.058,0,0,1-3.376,2.036A12.715,12.715,0,0,1,50.294,60a9.052,9.052,0,0,1-2.709-.4A6.956,6.956,0,0,1,45.3,58.409a5.643,5.643,0,0,1-1.577-1.994,6.4,6.4,0,0,1-.587-2.822,6.782,6.782,0,0,1,.707-3.309,5.4,5.4,0,0,1,1.86-2,8.162,8.162,0,0,1,2.588-1.039,28.391,28.391,0,0,1,2.891-.488,22.566,22.566,0,0,1,2.385-.361,10.706,10.706,0,0,0,2-.361,3.032,3.032,0,0,0,1.375-.785,2.226,2.226,0,0,0,.506-1.591,2.567,2.567,0,0,0-.424-1.528,2.893,2.893,0,0,0-1.052-.913A4.4,4.4,0,0,0,54.58,40.8a10.762,10.762,0,0,0-1.455-.105,5.581,5.581,0,0,0-3.194.848,3.348,3.348,0,0,0-1.416,2.631H43.907a7.532,7.532,0,0,1,.971-3.522A6.868,6.868,0,0,1,47.04,38.4a8.592,8.592,0,0,1,2.971-1.189,16.892,16.892,0,0,1,3.4-.339,13.658,13.658,0,0,1,3.032.339,8.388,8.388,0,0,1,2.689,1.1,5.982,5.982,0,0,1,1.92,1.973,5.626,5.626,0,0,1,.727,2.949V54.526A2.671,2.671,0,0,0,62,55.8a.92.92,0,0,0,.87.382h.485A2.9,2.9,0,0,0,64,56.1v3.352c-.162.056-.37.12-.627.191s-.518.135-.788.191a8.081,8.081,0,0,1-.809.127,6.783,6.783,0,0,1-.687.043A4.279,4.279,0,0,1,58.744,59.406ZM54.58,49.286q-1.536.149-3.073.445a9.36,9.36,0,0,0-1.415.361,4.183,4.183,0,0,0-1.213.636,2.779,2.779,0,0,0-.829,1.061,3.786,3.786,0,0,0-.3,1.591,2.1,2.1,0,0,0,.444,1.358,3.275,3.275,0,0,0,1.071.87,4.794,4.794,0,0,0,1.375.445,8.171,8.171,0,0,0,1.354.127,7.2,7.2,0,0,0,1.657-.212,5.388,5.388,0,0,0,1.678-.722,4.52,4.52,0,0,0,1.314-1.294,3.392,3.392,0,0,0,.526-1.93V48.416A5.419,5.419,0,0,1,54.58,49.286ZM35.982,60,29.594,49.35l-2.748,2.8V60H22.236V0h4.609V46.931l8.328-8.869h5.66l-8,8.062L41.6,60ZM13.746,60V46.209A6.167,6.167,0,0,0,12.7,42.454a3.722,3.722,0,0,0-3.032-1.167,4.8,4.8,0,0,0-2.1.446,4.585,4.585,0,0,0-1.577,1.23,5.89,5.89,0,0,0-1.011,1.846,6.889,6.889,0,0,0-.363,2.25V60H0V8.359H4.366v2.97h.081A5.834,5.834,0,0,1,7.156,8.593a8.635,8.635,0,0,1,3.76-.827,9.583,9.583,0,0,1,4.306.912,8.561,8.561,0,0,1,3.052,2.5,11.089,11.089,0,0,1,1.819,3.713,16.438,16.438,0,0,1,.606,4.54,16.8,16.8,0,0,1-.546,4.285A11.4,11.4,0,0,1,18.5,27.391a8.42,8.42,0,0,1-2.81,2.546,8.038,8.038,0,0,1-4,.954A10.869,10.869,0,0,1,9.663,30.7a8.433,8.433,0,0,1-1.941-.615A7.582,7.582,0,0,1,6,29a5.924,5.924,0,0,1-1.315-1.549h-.08V41.1A7.865,7.865,0,0,1,7.2,38.507a7.064,7.064,0,0,1,3.76-1.039,7.576,7.576,0,0,1,5.417,1.867q1.982,1.866,1.982,5.6V60ZM5.923,13.706A9.7,9.7,0,0,0,4.447,19.35a11.758,11.758,0,0,0,.384,3.076,7.083,7.083,0,0,0,1.153,2.44,5.834,5.834,0,0,0,1.839,1.612,5.045,5.045,0,0,0,2.487.594,4.959,4.959,0,0,0,2.668-.679,5.76,5.76,0,0,0,1.8-1.761,7.311,7.311,0,0,0,1.011-2.461,13.113,13.113,0,0,0,.3-2.821,11.432,11.432,0,0,0-.363-2.886,8.033,8.033,0,0,0-1.092-2.482,5.731,5.731,0,0,0-1.819-1.74,4.753,4.753,0,0,0-2.506-.658A4.992,4.992,0,0,0,5.923,13.706ZM44.674,30.3a2.982,2.982,0,0,1-1.213-2.08,8.069,8.069,0,0,1-3.376,2.037,12.717,12.717,0,0,1-3.861.636,9.071,9.071,0,0,1-2.709-.4A7,7,0,0,1,31.231,29.3a5.644,5.644,0,0,1-1.576-2,6.4,6.4,0,0,1-.587-2.821,6.788,6.788,0,0,1,.707-3.31,5.4,5.4,0,0,1,1.86-1.994,8.185,8.185,0,0,1,2.588-1.04,28.928,28.928,0,0,1,2.89-.488,22.874,22.874,0,0,1,2.385-.361,10.707,10.707,0,0,0,2-.36,3.032,3.032,0,0,0,1.375-.785,2.228,2.228,0,0,0,.506-1.591,2.564,2.564,0,0,0-.425-1.527,2.875,2.875,0,0,0-1.051-.913,4.378,4.378,0,0,0-1.395-.424,10.633,10.633,0,0,0-1.455-.106,5.574,5.574,0,0,0-3.194.849,3.345,3.345,0,0,0-1.416,2.63H29.837a7.538,7.538,0,0,1,.97-3.521,6.874,6.874,0,0,1,2.164-2.25A8.608,8.608,0,0,1,35.942,8.1a16.892,16.892,0,0,1,3.4-.339A13.658,13.658,0,0,1,42.37,8.1a8.375,8.375,0,0,1,2.688,1.1,5.968,5.968,0,0,1,1.921,1.973,5.623,5.623,0,0,1,.727,2.948V25.417a2.669,2.669,0,0,0,.223,1.272.918.918,0,0,0,.869.383h.486a2.912,2.912,0,0,0,.647-.085v3.352q-.243.086-.627.191t-.788.192c-.269.056-.539.1-.808.127a6.752,6.752,0,0,1-.688.042A4.285,4.285,0,0,1,44.674,30.3ZM40.51,20.177q-1.537.149-3.073.445a9.552,9.552,0,0,0-1.415.361,4.205,4.205,0,0,0-1.213.636,2.775,2.775,0,0,0-.829,1.062,3.784,3.784,0,0,0-.3,1.591,2.092,2.092,0,0,0,.444,1.358,3.252,3.252,0,0,0,1.071.87,4.8,4.8,0,0,0,1.375.446,8.171,8.171,0,0,0,1.354.127,7.151,7.151,0,0,0,1.657-.213,5.346,5.346,0,0,0,1.678-.722,4.517,4.517,0,0,0,1.314-1.293,3.393,3.393,0,0,0,.525-1.931V19.307A5.412,5.412,0,0,1,40.51,20.177Z" transform="translate(31.26 43.72)"/>
    </g>
  </g>
</svg>
